<?xml version="1.0" encoding="UTF-8"?> <svg xmlns="http://www.w3.org/2000/svg" width="60" height="59" fill="none"><g clip-path="url(#a)"><rect x=".5" y=".813" width="59" height="58" rx="29" fill="#fff"></rect><path d="M30 58.813c-7.88 0-15.287-3.017-20.86-8.494C3.568 44.841.5 37.559.5 29.812c0-7.746 3.068-15.028 8.64-20.506C14.712 3.829 22.12.813 30 .813c7.88 0 15.288 3.016 20.86 8.493 5.572 5.477 8.64 12.76 8.64 20.507 0 7.746-3.068 15.028-8.64 20.506-5.572 5.477-12.98 8.493-20.86 8.493Zm0-56.525c-7.479 0-14.51 2.863-19.798 8.062C4.913 15.549 2 22.46 2 29.812s2.912 14.264 8.2 19.463c5.29 5.199 12.32 8.062 19.799 8.062 7.479 0 14.51-2.863 19.798-8.062C55.087 44.076 58 37.165 58 29.813s-2.912-14.264-8.2-19.463C44.508 5.15 37.478 2.288 30 2.288Z" fill="#000"></path><path d="M31.735 39.813c-1.123-.343-2.123-.925-2.878-1.689-.78-.79-1.299-1.775-1.428-2.892-.139-1.21.18-2.555 1.126-3.95.517-.76 1.232-1.29 2.037-1.625.948-.395 2.017-.51 3.023-.41.714.07 1.402.25 1.998.512a4.52 4.52 0 0 0-.175-.39c-.333-.66-.823-1.224-1.5-1.764-1.62-1.292-4.29-1.111-6.428-.548-.43.114-.836.243-1.209.378a11.04 11.04 0 0 0-.991.415c-1.659.801-3.306 1.864-5.02 2.97-2.588 1.668-5.322 3.431-8.534 4.617a18.598 18.598 0 0 0 2.043 4.346 27.495 27.495 0 0 0 2.079-.806c2.235-.97 4.324-2.222 5.63-3.507l1.181-1.16.135 1.637c.177 2.149.979 3.735 2.008 4.91 1.043 1.192 2.328 1.977 3.441 2.5 1.265.596 2.65.792 4.105.739 1.502-.056 3.081-.377 4.68-.807 1.26-.338 2.577-.786 3.883-1.23 1.113-.377 3.04-.966 4.683-1.423a18.708 18.708 0 0 0 2.08-3.72 42.384 42.384 0 0 0-5.172.88c-3.506.835-7.139 3.129-10.797 2.015v.002Z" fill="#0086CA"></path><path d="M47.702 36.918a.536.536 0 0 0 .038-.004c.212-.516.4-1.042.566-1.579-.01 0-.018.002-.028.003a18.411 18.411 0 0 1-.538 1.49l-.038.09ZM11.348 33.956a.177.177 0 0 0-.018.008c.114.503.247.998.4 1.485l.024-.01c-.008-.026-.017-.05-.024-.076-.146-.461-.273-.93-.382-1.405v-.002ZM37.46 44.753c-1.7.458-3.392.799-5.03.86-1.684.061-3.307-.175-4.822-.886-1.269-.597-2.736-1.498-3.946-2.88a9.523 9.523 0 0 1-2.17-4.347c-1.375 1.064-3.144 2.059-4.995 2.863a29.113 29.113 0 0 1-1.797.71l-.02.006a18.955 18.955 0 0 0 3.152 3.22 19.21 19.21 0 0 0 7.738 3.799 18.93 18.93 0 0 0 7.473.27 19.486 19.486 0 0 0 8.921-3.92 18.951 18.951 0 0 0 1.857-1.672l.102-.105c-.812.253-1.645.536-2.484.82-1.333.453-2.675.91-3.98 1.26l.002.002Z" fill="#00B3D6"></path><path d="M30 11.016c-10.543 0-19.121 8.432-19.121 18.797 0 1.395.156 2.755.45 4.064l.018.078c3.03-1.135 5.634-2.813 8.098-4.402 1.755-1.133 3.444-2.222 5.188-3.063.328-.158.712-.32 1.136-.476.414-.15.865-.294 1.341-.42 2.512-.662 5.707-.828 7.796.84.85.678 1.472 1.4 1.91 2.266.79 1.652.621 3.451.021 4.748-.346-.859-.557-1.51-1.38-2.05-.521-.34-1.232-.573-1.993-.649-.771-.075-1.579.008-2.277.298a2.989 2.989 0 0 0-1.35 1.075c-.73 1.076-.98 2.073-.88 2.943.088.765.451 1.448 1 2.005.574.582 1.349 1.031 2.227 1.298 3.187.97 6.849-1.291 9.983-2.038a45.046 45.046 0 0 1 6.108-.993l.028-.089c.53-1.721.815-3.547.815-5.436 0-10.365-8.578-18.797-19.12-18.797H30Z" fill="#FBB03B"></path><path d="M44.57 15.49a20.55 20.55 0 0 0-6.549-4.34 20.776 20.776 0 0 0-8.02-1.593c-2.783 0-5.48.535-8.021 1.592a20.548 20.548 0 0 0-6.55 4.34 20.164 20.164 0 0 0-4.415 6.438 19.83 19.83 0 0 0-1.62 7.885 19.949 19.949 0 0 0 .924 6.02 20.048 20.048 0 0 0 2.015 4.415 20.305 20.305 0 0 0 3.097 3.888 20.55 20.55 0 0 0 6.549 4.34A20.78 20.78 0 0 0 30 50.069c2.782 0 5.48-.536 8.021-1.592a20.551 20.551 0 0 0 6.55-4.34 20.296 20.296 0 0 0 3.191-4.048 19.982 19.982 0 0 0 1.223-18.16 20.162 20.162 0 0 0-4.416-6.438h.001Zm-.747 27.288a18.76 18.76 0 0 1-1.857 1.673 19.485 19.485 0 0 1-8.922 3.92 18.93 18.93 0 0 1-7.473-.271 19.203 19.203 0 0 1-7.737-3.799 18.947 18.947 0 0 1-3.152-3.22l.02-.007c.134-.047.266-.096.398-.144.466-.174.934-.364 1.398-.565 1.852-.804 3.62-1.8 4.995-2.863a9.536 9.536 0 0 0 2.17 4.346c1.21 1.383 2.678 2.284 3.947 2.88 1.514.712 3.137.948 4.822.886 1.637-.06 3.328-.403 5.03-.859 1.305-.35 2.647-.807 3.98-1.26.839-.284 1.673-.568 2.484-.82l-.101.105-.002-.002Zm4.483-7.529-.028.089c.01 0 .019-.002.028-.003a18.288 18.288 0 0 1-.566 1.578.48.48 0 0 0-.038.005 18.686 18.686 0 0 1-2.08 3.72c-1.642.458-3.57 1.046-4.683 1.425-1.305.443-2.622.89-3.882 1.229v.002c-1.6.43-3.179.751-4.68.806-1.455.054-2.84-.143-4.105-.738-1.114-.524-2.398-1.31-3.44-2.5-1.03-1.176-1.832-2.762-2.01-4.91l-.134-1.638-1.181 1.161c-1.307 1.285-3.396 2.537-5.63 3.507a27.353 27.353 0 0 1-2.08.806 18.564 18.564 0 0 1-2.042-4.346l-.025.009a18.333 18.333 0 0 1-.4-1.485.148.148 0 0 0 .018-.007l-.017-.078c-.295-1.31-.45-2.67-.45-4.065 0-10.364 8.577-18.797 19.12-18.797 10.543 0 19.122 8.433 19.122 18.797 0 1.89-.286 3.715-.816 5.437v-.004Z" fill="#000"></path><path d="M32.186 38.369c-.878-.267-1.652-.715-2.227-1.299-.548-.556-.912-1.238-1-2.004-.1-.87.15-1.867.88-2.943.34-.502.815-.853 1.35-1.075.699-.29 1.507-.374 2.278-.298.76.076 1.471.308 1.992.649.823.54 1.035 1.192 1.38 2.05.601-1.297.77-3.096-.02-4.748-.437-.867-1.06-1.59-1.91-2.267-2.09-1.666-5.284-1.5-7.796-.838-.476.125-.928.268-1.342.42-.424.154-.807.316-1.136.474-1.744.842-3.433 1.931-5.188 3.064-2.464 1.59-5.066 3.267-8.097 4.402.108.476.236.945.381 1.406l.025.076c3.211-1.186 5.946-2.949 8.534-4.618 1.713-1.105 3.361-2.167 5.02-2.969.293-.14.627-.282.991-.415.374-.135.78-.264 1.21-.378 2.138-.563 4.808-.744 6.427.548.677.54 1.168 1.104 1.5 1.764.064.124.122.255.175.39a6.628 6.628 0 0 0-1.998-.513c-1.006-.1-2.075.016-3.023.41-.806.335-1.52.866-2.037 1.626-.946 1.396-1.265 2.74-1.126 3.95.13 1.117.648 2.1 1.428 2.892.753.765 1.754 1.346 2.878 1.689 3.657 1.114 7.291-1.18 10.796-2.014 1.668-.398 3.4-.686 5.173-.882l.037-.09c.2-.487.38-.984.538-1.49-2.092.2-4.139.524-6.108.993-3.134.746-6.797 3.008-9.983 2.038h-.002ZM8.648 26.015l-.134 1.364-.638.01-.059.605.625.13-.134 1.36-4.943-1.469.147-1.488 5.137-.513h-.001Zm-1.727 1.383-1.91.024 1.87.382.04-.406ZM6.048 21.302l-.226.748 3.639 1.07-.362 1.191-3.64-1.07-.226.744-1.212-.355.817-2.684 1.211.356ZM11.477 18.765l-1.182 2.2-4.478-2.325L7 16.44l1.12.581-.592 1.1.561.292.591-1.1.528 1.68.561.291.591-1.1 1.12.581h-.002ZM14.135 15.303l-.64.772-1.833-.745 1.472 1.18-.8.964-3.924-3.146.64-.772 1.83.748-1.47-1.18.801-.967 3.925 3.146h-.001ZM17.268 12.582l-1.953 1.582-3.22-3.843 1.953-1.581.804.96-.976.79.403.482.977-.791-.172 1.75.404.482.976-.792.805.96-.001.001ZM21.596 10.144l-1.238.634-.355-.521-.55.281.231.586-1.233.631-1.442-4.875 1.349-.69 3.238 3.954Zm-2.121-.67-1.062-1.561.693 1.75.369-.189ZM29.073 7.245c.04.38-.098.712-.413.995a1.8 1.8 0 0 1-1.028.442l-1.26.127-.519-4.952 1.26-.127a1.51 1.51 0 0 1 1.045.261c.323.229.503.53.542.902.056.536-.145.95-.605 1.238.59.146.916.517.978 1.114Zm-1.485-2a.281.281 0 0 0-.039-.116.325.325 0 0 0-.308-.162l.064.621a.304.304 0 0 0 .21-.117.372.372 0 0 0 .058-.107c.013-.04.017-.08.013-.12h.002Zm.195 1.856a.281.281 0 0 0-.039-.115.325.325 0 0 0-.186-.148c-.04-.013-.08-.018-.122-.013l.064.62a.319.319 0 0 0 .21-.117.372.372 0 0 0 .059-.107c.013-.04.018-.08.013-.12ZM33.619 8.804l-1.263-.123-.125-1.889-.188 1.858-1.259-.123.503-4.954 1.259.124c.433.042.788.231 1.064.566.28.333.398.71.355 1.134-.052.511-.307.904-.765 1.179l.419 2.228Zm-.917-3.531a.279.279 0 0 0-.014-.121.326.326 0 0 0-.268-.219l-.063.62c.042.005.083 0 .123-.013a.336.336 0 0 0 .186-.152.283.283 0 0 0 .037-.115ZM38.438 10.157l-1.326-.428.132-.614-.588-.19-.266.571-1.322-.427 2.543-4.419 1.446.467-.618 5.04h-.001Zm-.994-1.96.396-1.837-.79 1.71.395.128ZM44.82 7.948l-3 2.593.954.556-.646 1.07-2.342-1.366 3-2.593-.953-.556.645-1.07 2.342 1.366ZM44.97 14.444l-1.428-1.23.834-.935.237.205 1.67-1.874-.238-.205.834-.935 1.429 1.23-.834.935-.24-.206-1.67 1.873.24.207-.834.935ZM47.706 17.537l-1.584-1.939 3.948-3.118.793.97-2.962 2.339.793.97-.986.778h-.002ZM49.437 20.44l-.914-1.639 1.11-.597.152.272 2.222-1.198-.152-.272 1.11-.597.913 1.637-1.11.598-.153-.275-2.222 1.198.154.275-1.11.597ZM51.165 25.103l-.417-1.309.584-.252-.186-.581-.626.12-.417-1.304 5.135-.54.456 1.426-4.529 2.44Zm1.043-1.935 1.75-.754-1.874.364.125.39ZM51.665 29.377l-.086-.992 1.844-.718-1.893.158-.107-1.24 5.045-.421.087.992-1.844.714 1.892-.158.108 1.243-5.045.422h-.001ZM6.212 38.114a1.395 1.395 0 0 1-1.088-.098 1.352 1.352 0 0 1-.696-.823l-.189-.596 1.208-.37.189.596c.03.098.097.131.199.1l3.474-1.064.377 1.19-3.474 1.064v.001ZM6.635 42.441l-.855-1.667 1.13-.56.141.277 2.262-1.121-.141-.277 1.13-.56.855 1.668-1.13.56-.143-.28L7.62 41.6l.144.28-1.13.56ZM10.79 45.936c-.32.24-.68.339-1.078.298a1.344 1.344 0 0 1-.958-.534 1.302 1.302 0 0 1-.269-1.05c.066-.388.26-.702.58-.943l2.896-2.168.766.99-2.896 2.167c-.084.064-.094.137-.03.22.063.08.137.09.222.027l2.895-2.168.77.992-2.896 2.168h-.001ZM15.335 49.26l-2.186-1.796.609-.717 2.186 1.796-.609.717ZM18.983 52.137a1.37 1.37 0 0 1-.846.68 1.39 1.39 0 0 1-1.082-.105l-.56-.294.597-1.097.56.294c.091.048.162.026.212-.066l1.717-3.154 1.119.588-1.717 3.154ZM22.372 54.93l-1.799-.598.405-1.178.298.1.813-2.36-.298-.1.405-1.177 1.799.598-.405 1.178-.302-.1-.813 2.359.302.1-.405 1.179ZM28.083 52.234l-.786-.112-.549 3.696-1.252-.18.549-3.696-.783-.112.183-1.23 2.82.404-.183 1.231h.001ZM31.826 50.967l-.165 1.115a.503.503 0 0 0-.179-.02.47.47 0 0 0-.306.126.375.375 0 0 0-.12.294c.006.175.151.482.437.919.286.438.435.808.445 1.112.016.44-.13.804-.439 1.091-.307.286-.686.437-1.138.453a2.078 2.078 0 0 1-.439-.036l.15-1.115a.504.504 0 0 0 .179.02.477.477 0 0 0 .307-.12.346.346 0 0 0 .127-.286c-.005-.138-.152-.431-.44-.879-.289-.447-.438-.824-.45-1.13-.015-.448.127-.818.428-1.113.304-.298.685-.455 1.146-.47.155-.006.308.007.457.038v.001ZM36.944 53.691c.088.387.03.75-.173 1.09a1.338 1.338 0 0 1-.893.634c-.391.086-.752.02-1.084-.198a1.442 1.442 0 0 1-.63-.912l-.798-3.49 1.234-.273.799 3.49c.023.103.087.142.19.12.101-.023.14-.085.117-.187l-.798-3.49 1.238-.274.798 3.49ZM43.738 47.81l-.664.429 2.09 3.12-1.057.684-2.089-3.12-.66.427-.696-1.038 2.38-1.541.696 1.038v.001ZM49.563 47.638l-1.808 1.739-3.541-3.559 1.808-1.739.885.889-.905.87.444.445.904-.87-.02 1.759.444.445.904-.87.885.89ZM53.139 42.919l-.776 1.14-.567-.29-.344.506.488.405-.774 1.137-3.645-3.596.846-1.243 4.772 1.941Zm-2.187.413-1.694-.869 1.463 1.208.231-.34ZM55.745 36.866l-.474 1.285-2.679-.954 2.462 1.54-2.893-.371 2.679.954-.476 1.29-4.653-1.989.475-1.289 1.893.345-1.677-.931.474-1.286 4.868 1.405ZM5.8 33.731c.737 0 1.336-.588 1.336-1.314 0-.725-.599-1.314-1.337-1.314s-1.336.589-1.336 1.314c0 .726.598 1.314 1.336 1.314ZM54.107 33.731c.738 0 1.337-.588 1.337-1.314 0-.725-.599-1.314-1.337-1.314s-1.337.589-1.337 1.314c0 .726.599 1.314 1.337 1.314Z" fill="#000"></path></g><defs><clipPath id="a"><rect x=".5" y=".813" width="59" height="58" rx="29" fill="#fff"></rect></clipPath></defs></svg> 