<svg
  class="brxe-icon card-beneficios__icon"
  id="brxe-fxbugd"
  xmlns="http://www.w3.org/2000/svg"
  width="50"
  height="46"
  viewBox="0 0 50 46"
  fill="none"
>
  <g clip-path="url(#clip0_779_1070)">
    <path
      d="M49.3665 35.5627C49.3665 37.8859 49.4081 40.2106 49.3537 42.5338C49.3073 44.5508 47.2359 45.886 45.3022 45.2184C44.0937 44.8017 43.2565 43.6985 43.2517 42.4438C43.2373 39.5888 43.2453 36.7338 43.2485 33.8772C43.2485 33.2838 43.5254 32.946 43.9976 32.9287C44.4939 32.9113 44.7964 33.2633 44.7964 33.8835C44.7996 36.6596 44.7932 39.4373 44.8012 42.2134C44.8044 43.2093 45.4511 43.8643 46.3715 43.8343C47.1671 43.809 47.7706 43.2456 47.8058 42.4581C47.833 41.8489 47.817 41.2381 47.8186 40.6273C47.8186 36.7875 47.7818 32.946 47.8378 29.1078C47.8586 27.6668 46.8677 26.873 45.5824 26.8888C42.4881 26.9251 39.3923 26.8935 36.2965 26.9077C35.8403 26.9093 35.509 26.772 35.1888 26.4547C33.1511 24.4251 31.1038 22.4066 29.0484 20.3959C28.1872 19.5531 26.9323 19.8277 26.6297 20.912C26.4536 21.5433 26.7658 22.0041 27.1996 22.4287C29.3926 24.583 31.5792 26.742 33.769 28.8994C34.2492 29.3729 34.7598 29.8211 35.1968 30.3309C35.4113 30.5803 35.6114 30.9417 35.613 31.2526C35.6418 35.1319 35.6338 39.0112 35.629 42.8905C35.629 43.5281 35.3329 43.8848 34.8559 43.8911C34.366 43.8958 34.0587 43.5123 34.0571 42.8479C34.0523 39.2242 34.0475 35.6006 34.0635 31.977C34.0651 31.5256 33.9274 31.2131 33.6041 30.8991C31.0365 28.3912 28.4738 25.8771 25.9318 23.3425C24.283 21.6979 24.9778 19.0323 27.2028 18.4563C28.3585 18.1564 29.3526 18.5004 30.1977 19.3432C32.0802 21.2182 33.9867 23.0694 35.8659 24.9475C36.1701 25.2506 36.4694 25.3831 36.908 25.38C39.8229 25.361 42.7395 25.3673 45.6544 25.3705C47.9258 25.3737 49.3633 26.7704 49.3761 29.0052C49.3889 31.191 49.3793 33.3769 49.3793 35.5627C49.3745 35.5627 49.3713 35.5627 49.3665 35.5627Z"
      fill="#3D3D3D"
    ></path>
    <path
      d="M26.4552 1.66386C26.4552 2.4009 26.46 3.04797 26.4552 3.69663C26.4488 4.44313 26.1847 4.81402 25.4884 5.08863C25.0258 5.27013 24.5616 5.44531 24.1054 5.64101C23.5083 5.89827 22.9849 5.82093 22.5158 5.3664C22.0884 4.95133 21.6547 4.54572 21.2209 4.13696C21.1936 4.1117 21.1504 4.10539 21.1168 4.09277C20.2556 4.98447 19.396 5.87459 18.514 6.78681C18.8358 7.11035 19.252 7.52858 19.6697 7.94524C20.246 8.52129 20.3148 8.9048 19.9883 9.64657C19.8058 10.0601 19.6153 10.472 19.4568 10.895C19.2103 11.5547 18.7269 11.8498 18.0354 11.8514C17.4367 11.8514 16.8397 11.8514 16.1914 11.8514V15.5665C16.7996 15.5665 17.3935 15.5634 17.9874 15.5665C18.8118 15.5729 19.1975 15.8364 19.4905 16.5735C19.6505 16.9759 19.817 17.3752 19.9899 17.7713C20.3164 18.5194 20.2588 18.9045 19.6825 19.4758C19.2616 19.8925 18.8198 20.287 18.434 20.6469C19.3688 21.5701 20.2364 22.4287 21.1568 23.3378C21.3873 23.1468 21.6851 22.8943 21.9892 22.6497C22.439 22.2882 22.9048 22.293 23.2058 22.6544C23.4843 22.989 23.4171 23.4514 23.0249 23.8033C22.7592 24.0417 22.487 24.2737 22.2053 24.493C21.4402 25.088 20.5838 25.077 19.873 24.411C19.0182 23.6108 18.1811 22.7917 17.3759 21.9458C16.6716 21.2056 16.702 20.306 17.4079 19.5689C17.7777 19.1839 18.1715 18.8209 18.5236 18.4784C18.5268 18.401 18.5348 18.379 18.5284 18.3632C18.2093 17.5257 17.5856 17.1053 16.6572 17.1022C15.1701 17.0974 14.589 16.5308 14.5858 15.0757C14.5826 14.0719 14.573 13.0666 14.5906 12.0629C14.6082 10.9802 15.2373 10.3599 16.3402 10.3142C16.7196 10.2984 17.1022 10.2826 17.4783 10.3173C17.8865 10.3552 18.0322 10.1674 18.2243 9.82807C18.5828 9.1952 18.4932 8.75487 17.8977 8.36189C17.7185 8.24352 17.576 8.06676 17.4255 7.91052C16.6732 7.12929 16.6492 6.20602 17.4063 5.44216C18.2291 4.612 19.0775 3.80395 19.9387 3.01167C20.6382 2.36775 21.5362 2.37249 22.2693 2.98642C22.4662 3.15214 22.6743 3.31943 22.8248 3.52302C23.265 4.11959 23.7468 4.23323 24.4255 3.86076C24.7649 3.67453 24.9586 3.54196 24.9201 3.1332C24.8785 2.70392 24.9057 2.26675 24.9121 1.83431C24.9265 0.93156 25.4644 0.221354 26.3576 0.174007C27.6894 0.101408 29.0308 0.110877 30.3642 0.174007C31.1454 0.211884 31.6592 0.778471 31.7649 1.5597C31.8305 2.04422 31.8385 2.54294 31.8129 3.03219C31.7921 3.43148 31.9618 3.5751 32.3075 3.76291C32.9558 4.1117 33.3944 3.99965 33.7994 3.43306C33.9467 3.22789 34.1548 3.0606 34.3484 2.89173C35.0592 2.27306 35.9876 2.24781 36.6743 2.88857C37.5595 3.71399 38.4223 4.56308 39.2563 5.43742C39.9094 6.12238 39.9526 7.11035 39.2211 7.71166C38.251 8.50867 37.8701 9.282 38.616 10.4215C38.8529 10.7829 38.5952 11.1601 38.211 11.3384C37.814 11.5231 37.4347 11.411 37.2458 11.0196C36.956 10.4183 36.6279 9.80756 36.5046 9.16521C36.4326 8.78644 36.6407 8.28771 36.8712 7.93892C37.1481 7.51911 37.6043 7.21767 37.9373 6.82627C38.0269 6.72053 38.0285 6.40488 37.9373 6.30861C37.1721 5.50844 36.375 4.73668 35.5266 3.89549C35.0784 4.33581 34.6622 4.74773 34.2428 5.15492C33.6185 5.75938 33.2151 5.82251 32.4116 5.46899C32.0482 5.30958 31.68 5.15965 31.3087 5.01919C30.5067 4.71617 30.2602 4.37685 30.2458 3.50882C30.2378 3.03693 30.2714 2.5603 30.2266 2.09156C30.2122 1.94005 30.0153 1.68596 29.8952 1.6828C28.7811 1.65123 27.6654 1.66386 26.46 1.66386H26.4552Z"
      fill="#3D3D3D"
    ></path>
    <path
      d="M22.1669 43.8581C22.3029 42.9616 21.9572 42.0573 23.0169 41.5475C24.2766 40.9415 25.3379 40.8484 26.0935 42.1757C26.6553 41.6043 27.1643 41.0867 27.7182 40.5232C27.0571 39.8998 26.324 39.3049 26.8986 37.9744C27.4541 36.6881 28.3201 36.6266 29.4358 36.7181V34.4644C28.3985 34.4912 27.4605 34.5386 26.9194 33.2255C26.3864 31.9313 26.913 31.2685 27.8158 30.5914C27.2316 30.0517 26.7001 29.5624 26.1143 29.0211C25.4596 29.7344 24.8177 30.3563 23.4971 29.826C22.1717 29.2925 22.1605 28.4008 22.2085 27.3213H19.9627C20.0043 28.3756 20.0187 29.2831 18.6869 29.8133C17.3647 30.3405 16.71 29.7755 16.0201 28.969C15.4726 29.5214 14.9588 30.039 14.4225 30.5804C14.8435 31.2053 15.8488 31.5857 15.4006 32.7899C14.9156 34.0983 14.2112 34.7974 12.6745 34.3886C12.6745 35.0594 12.6809 35.6244 12.6729 36.1878C12.6649 36.7765 12.3768 37.0906 11.879 37.0795C11.4036 37.0685 11.1362 36.767 11.125 36.2052C11.1154 35.6339 11.117 35.0626 11.125 34.4912C11.1362 33.4954 11.7141 32.9572 12.7354 32.9146C13.0987 32.8988 13.627 33.1702 13.7566 32.5421C13.7886 32.3874 13.7406 32.1807 13.6526 32.0481C13.5245 31.854 13.318 31.712 13.1596 31.5352C12.5849 30.8944 12.5753 30.1432 13.1676 29.5214C13.7278 28.9327 14.3089 28.3629 14.9011 27.8058C15.5783 27.1698 16.3274 27.2061 17.0413 27.8058C17.3215 28.0426 17.4447 28.5807 18.0306 28.3629C18.6565 28.1309 18.3539 27.6306 18.3875 27.2519C18.4692 26.3144 18.983 25.7794 19.9595 25.7494C20.6974 25.7273 21.4369 25.7289 22.1765 25.7494C23.1705 25.7762 23.7228 26.316 23.782 27.2866C23.7932 27.4823 23.742 27.6938 23.7996 27.8737C23.854 28.0489 23.9805 28.2667 24.1326 28.3282C24.283 28.3882 24.5359 28.3251 24.688 28.2304C25.1026 27.9715 25.45 27.5754 25.8934 27.4065C26.3752 27.2219 26.8746 27.4144 27.2588 27.7948C27.795 28.3251 28.3377 28.8475 28.8675 29.3825C29.6407 30.1653 29.6183 30.8944 28.8483 31.7009C28.605 31.955 28.0928 32.1412 28.4369 32.6384C28.5282 32.7694 28.7139 32.8846 28.8723 32.913C29.1236 32.9588 29.3894 32.9146 29.6487 32.9304C30.425 32.9777 30.9933 33.5364 31.0125 34.3018C31.0317 35.1288 31.0301 35.9558 31.0157 36.7828C31.0013 37.6398 30.4186 38.2017 29.5398 38.2316C29.2997 38.2395 29.0516 38.1938 28.8243 38.2474C28.669 38.2837 28.485 38.4242 28.4241 38.5647C28.3633 38.7051 28.3921 38.9292 28.4673 39.0713C28.5554 39.2386 28.7379 39.3554 28.8771 39.4958C29.6119 40.2439 29.6295 40.9841 28.9123 41.7227C28.4017 42.2483 27.8799 42.7643 27.3468 43.271C26.5689 44.0096 25.8213 43.9985 25.0386 43.252C24.9089 43.1289 24.8033 42.9632 24.6512 42.8874C24.5007 42.8117 24.2782 42.7612 24.1342 42.8164C23.9885 42.8717 23.838 43.0579 23.8012 43.211C23.7436 43.454 23.798 43.7208 23.7724 43.9748C23.6876 44.8303 23.1721 45.3463 22.2997 45.3889C21.5426 45.4252 20.7822 45.4142 20.0235 45.3937C19.4808 45.3779 19.1351 45.0528 19.1623 44.6109C19.1959 44.0743 19.5481 43.8644 20.0491 43.8565C20.7422 43.847 21.4369 43.8549 22.1637 43.8549L22.1669 43.8581Z"
      fill="#3D3D3D"
    ></path>
    <path
      d="M9.52434 45.4049C7.74753 45.4049 5.96912 45.3717 4.19391 45.4128C1.92887 45.4664 0.360156 43.7935 0.414581 41.6881C0.491416 38.7368 0.404977 35.7808 0.465804 32.8295C0.513826 30.4969 2.59157 28.4941 4.95105 28.4373C6.70705 28.3947 8.46465 28.4152 10.2207 28.4183C10.8385 28.4183 11.1411 28.6866 11.1315 29.1838C11.1219 29.662 10.7969 29.9429 10.1934 29.9461C8.63593 29.9555 7.07522 30.0092 5.52251 29.935C3.5296 29.8403 1.91447 31.417 1.97369 33.4419C2.05533 36.2164 1.9913 38.9941 1.9945 41.7702C1.9961 43.1291 2.70683 43.8487 4.09306 43.8519C7.70751 43.863 11.3204 43.8614 14.9348 43.8519C16.0745 43.8487 16.8573 43.1606 16.8717 42.1932C16.8861 41.2036 16.0761 40.4871 14.914 40.4855C12.0391 40.4808 9.16417 40.4792 6.28926 40.4871C5.82185 40.4871 5.45528 40.2946 5.42967 39.8574C5.41526 39.5922 5.65377 39.2687 5.86507 39.0525C5.98192 38.9325 6.27646 38.9578 6.49095 38.9578C9.32585 38.9531 12.1607 38.9515 14.9956 38.9546C16.9037 38.9578 18.3828 40.3182 18.4212 42.0969C18.4612 43.915 17.0318 45.3354 15.0917 45.4017C15.0517 45.4017 15.0116 45.4017 14.9716 45.4017C13.1548 45.4017 11.338 45.4017 9.52114 45.4017L9.52434 45.4049Z"
      fill="#3D3D3D"
    ></path>
    <path
      d="M47.0773 18.5957C47.0805 21.7285 44.5162 24.2805 41.3595 24.2836C38.2157 24.2884 35.5953 21.7174 35.5873 18.6241C35.5793 15.5165 38.1757 12.9519 41.3307 12.9487C44.521 12.9456 47.0741 15.455 47.0773 18.5941V18.5957ZM45.5262 18.6114C45.5262 16.3262 43.6614 14.4828 41.3467 14.4812C39.0465 14.4812 37.1464 16.3467 37.1448 18.6099C37.1432 20.8557 39.0705 22.7575 41.3467 22.7559C43.647 22.7559 45.5262 20.8904 45.5262 18.6114Z"
      fill="#3D3D3D"
    ></path>
    <path
      d="M9.22498 27.284C6.06353 27.284 3.46715 24.7288 3.46875 21.6229C3.47035 18.5248 6.08434 15.9523 9.22978 15.9507C12.3912 15.9507 14.9604 18.4948 14.9604 21.6276C14.9604 24.7699 12.4104 27.2856 9.22498 27.284ZM9.23138 25.7389C11.562 25.7389 13.4093 23.916 13.4077 21.6229C13.4077 19.3313 11.5492 17.5037 9.22338 17.5068C6.91512 17.51 5.01986 19.3707 5.02466 21.6292C5.02786 23.8987 6.91192 25.7405 9.23138 25.7389Z"
      fill="#3D3D3D"
    ></path>
    <path
      d="M22.2215 13.7031C22.2279 10.7108 24.4817 8.35292 27.6143 8.05936C30.3852 7.79895 33.0872 9.85382 33.6139 12.6568C33.8059 13.6747 33.7339 14.6927 33.3529 15.6743C33.14 16.2204 32.7479 16.4698 32.3269 16.3277C31.8546 16.1699 31.6914 15.7469 31.8787 15.1646C32.5638 13.0387 31.7666 10.987 29.8841 10.0337C28.1281 9.14519 25.9127 9.60919 24.6978 11.1196C23.4476 12.6757 23.4812 14.8694 24.781 16.3924C25.3429 17.0506 25.4197 17.4704 25.0403 17.8081C24.6161 18.1853 24.1952 18.0606 23.5933 17.3836C22.7225 16.4019 22.2182 15.0494 22.2215 13.7016V13.7031Z"
      fill="#3D3D3D"
    ></path>
    <path
      d="M25.2851 35.5888C25.2803 37.7999 23.5371 39.618 21.2992 39.7411C20.811 39.768 20.422 39.6196 20.334 39.0814C20.254 38.5938 20.5325 38.2576 21.1376 38.2181C23.0296 38.0966 24.1293 36.3763 23.5995 34.7634C23.2089 33.5734 21.9699 32.7922 20.7726 32.9752C19.3944 33.1867 18.4451 34.222 18.4275 35.5351C18.4259 35.6535 18.4307 35.7719 18.4291 35.8887C18.4211 36.3748 18.1938 36.6825 17.6816 36.6967C17.1694 36.7109 16.9276 36.4111 16.8812 35.9329C16.6907 33.9411 18.0466 32.0472 20.0219 31.5454C22.6999 30.8636 25.2915 32.8553 25.2851 35.5888Z"
      fill="#3D3D3D"
    ></path>
  </g>
  <defs>
    <clipPath id="clip0_779_1070">
      <rect
        width="48.968"
        height="45.2953"
        fill="white"
        transform="translate(0.412842 0.120605)"
      ></rect>
    </clipPath>
  </defs>
</svg>
